<svg xmlns="http://www.w3.org/2000/svg" xmlns:xlink="http://www.w3.org/1999/xlink" width="454pt" height="436" viewBox="0 0 453.5 327"><g id="graph0" class="graph" transform="scale(1 1) rotate(0) translate(4 323)"><title>%3</title><polygon fill="#fff" stroke="transparent" points="-4 4 -4 -323 449.5 -323 449.5 4 -4 4"/><g id="node1" class="node"><title>uni.Term</title><g id="a_node1"><a xlink:title="term_year term"><polygon fill="#0f0" fill-opacity=".188" stroke="#0f0" stroke-opacity=".188" points="92 -248 30 -248 30 -213 92 -213 92 -248"/><text x="38" y="-228.4" fill="#006400" font-family="arial" font-size="12" text-anchor="start" text-decoration="underline">uni.Term</text></a></g></g><g id="node7" class="node"><title>uni.Section</title><g id="a_node7"><a xlink:title="→ uni.Course → uni.Term section ------------------------------ auditorium"><polygon fill="#0f0" fill-opacity=".188" stroke="#0f0" stroke-opacity=".188" points="197.5 -177 120.5 -177 120.5 -142 197.5 -142 197.5 -177"/><text x="128.5" y="-157.4" fill="#006400" font-family="arial" font-size="12" text-anchor="start" text-decoration="underline">uni.Section</text></a></g></g><g id="edge1" class="edge"><title>uni.Term-&gt;uni.Section</title><path fill="none" stroke="#000" stroke-opacity=".251" stroke-width=".75" d="M85.2247,-212.9494C100.3018,-202.0262 119.6258,-188.0262 134.7143,-177.0947"/></g><g id="node8" class="node"><title>uni.CurrentTerm</title><g id="a_node8"><a xlink:title="omega ------------------------------ → uni.Term"><polygon fill="#0f0" fill-opacity=".188" stroke="#0f0" stroke-opacity=".188" points="102 -177 0 -177 0 -142 102 -142 102 -177"/><text x="8" y="-157.4" fill="#006400" font-family="arial" font-size="12" text-anchor="start" text-decoration="underline">uni.CurrentTerm</text></a></g></g><g id="edge2" class="edge"><title>uni.Term-&gt;uni.CurrentTerm</title><path fill="none" stroke="#000" stroke-dasharray="5 2" stroke-opacity=".251" stroke-width=".75" d="M58.5281,-212.9494C57.0012,-202.1083 55.0474,-188.2366 53.5129,-177.3418"/></g><g id="node2" class="node"><title>uni.Student</title><g id="a_node2"><a xlink:title="student_id ------------------------------ first_name last_name sex date_of_birth home_address home_city home_state home_zip home_phone"><polygon fill="#0f0" fill-opacity=".188" stroke="#0f0" stroke-opacity=".188" points="413.5 -319 336.5 -319 336.5 -284 413.5 -284 413.5 -319"/><text x="344.5" y="-299.4" fill="#006400" font-family="arial" font-size="12" text-anchor="start" text-decoration="underline">uni.Student</text></a></g></g><g id="node4" class="node"><title>uni.Enroll</title><g id="a_node4"><a xlink:title="→ uni.Student → uni.Section"><polygon fill="#0f0" fill-opacity=".188" stroke="#0f0" stroke-opacity=".188" points="328 -106 260 -106 260 -71 328 -71 328 -106"/><text x="294" y="-85.4" fill="#006400" font-family="arial" font-size="12" text-anchor="middle">uni.Enroll</text></a></g></g><g id="edge3" class="edge"><title>uni.Student-&gt;uni.Enroll</title><path fill="none" stroke="#000" stroke-opacity=".251" stroke-width=".75" d="M398.5769,-283.8767C409.0979,-274.5228 420.3731,-262.0577 426,-248 431.7806,-233.5584 432.1623,-227.2829 426,-213 405.2844,-164.9852 355.9321,-126.8909 323.7917,-106.0403"/></g><g id="node5" class="node"><title>uni.StudentMajor</title><g id="a_node5"><a xlink:title="→ uni.Student ------------------------------ → uni.Department declare_date"><polygon fill="#0f0" fill-opacity=".188" stroke="#0f0" stroke-opacity=".188" points="315.5 -248 208.5 -248 208.5 -213 315.5 -213 315.5 -248"/><text x="262" y="-227.4" fill="#006400" font-family="arial" font-size="12" text-anchor="middle">uni.StudentMajor</text></a></g></g><g id="edge4" class="edge"><title>uni.Student-&gt;uni.StudentMajor</title><path fill="none" stroke="#000" stroke-opacity=".251" stroke-width="2" d="M347.0674,-283.9494C329.6826,-273.0262 307.4009,-259.0262 290.0029,-248.0947"/></g><g id="node6" class="node"><title>uni.Example</title><g id="a_node6"><a xlink:title="→ uni.Student ------------------------------ example"><polygon fill="#0f0" fill-opacity=".188" stroke="#0f0" stroke-opacity=".188" points="416.5 -248 333.5 -248 333.5 -213 416.5 -213 416.5 -248"/><text x="375" y="-227.4" fill="#006400" font-family="arial" font-size="12" text-anchor="middle">uni.Example</text></a></g></g><g id="edge5" class="edge"><title>uni.Student-&gt;uni.Example</title><path fill="none" stroke="#000" stroke-opacity=".251" stroke-width="2" d="M375,-283.9494C375,-273.1083 375,-259.2366 375,-248.3418"/></g><g id="node3" class="node"><title>uni.Grade</title><g id="a_node3"><a xlink:title="→ uni.Enroll ------------------------------ → uni.LetterGrade"><polygon fill="#0f0" fill-opacity=".188" stroke="#0f0" stroke-opacity=".188" points="379.5 -35 310.5 -35 310.5 0 379.5 0 379.5 -35"/><text x="345" y="-14.4" fill="#006400" font-family="arial" font-size="12" text-anchor="middle">uni.Grade</text></a></g></g><g id="edge6" class="edge"><title>uni.Enroll-&gt;uni.Grade</title><path fill="none" stroke="#000" stroke-opacity=".251" stroke-width="2" d="M306.6067,-70.9494C314.394,-60.1083 324.3582,-46.2366 332.184,-35.3418"/></g><g id="edge7" class="edge"><title>uni.Section-&gt;uni.Enroll</title><path fill="none" stroke="#000" stroke-opacity=".251" stroke-width=".75" d="M192.3708,-141.9494C213.1403,-131.0262 239.76,-117.0262 260.5452,-106.0947"/></g><g id="node9" class="node"><title>uni.Course</title><g id="a_node9"><a xlink:title="→ uni.Department course ------------------------------ course_name credits"><polygon fill="#0f0" fill-opacity=".188" stroke="#0f0" stroke-opacity=".188" points="190.5 -248 115.5 -248 115.5 -213 190.5 -213 190.5 -248"/><text x="123.5" y="-228.4" fill="#006400" font-family="arial" font-size="12" text-anchor="start" text-decoration="underline">uni.Course</text></a></g></g><g id="edge8" class="edge"><title>uni.Course-&gt;uni.Section</title><path fill="none" stroke="#000" stroke-opacity=".251" stroke-width=".75" d="M154.4831,-212.9494C155.3993,-202.1083 156.5716,-188.2366 157.4922,-177.3418"/></g><g id="node10" class="node"><title>uni.Department</title><g id="a_node10"><a xlink:title="dept ------------------------------ dept_name dept_address dept_phone"><polygon fill="#0f0" fill-opacity=".188" stroke="#0f0" stroke-opacity=".188" points="257 -319 159 -319 159 -284 257 -284 257 -319"/><text x="167" y="-299.4" fill="#006400" font-family="arial" font-size="12" text-anchor="start" text-decoration="underline">uni.Department</text></a></g></g><g id="edge9" class="edge"><title>uni.Department-&gt;uni.StudentMajor</title><path fill="none" stroke="#000" stroke-dasharray="5 2" stroke-opacity=".251" stroke-width=".75" d="M221.3483,-283.9494C229.5936,-273.1083 240.144,-259.2366 248.4302,-248.3418"/></g><g id="edge10" class="edge"><title>uni.Department-&gt;uni.Course</title><path fill="none" stroke="#000" stroke-opacity=".251" stroke-width=".75" d="M194.4045,-283.9494C186.0065,-273.1083 175.2607,-259.2366 166.8211,-248.3418"/></g><g id="node11" class="node"><title>uni.LetterGrade</title><g id="a_node11"><a xlink:title="grade ------------------------------ points"><polygon fill="#0f0" fill-opacity=".188" stroke="#0f0" stroke-opacity=".188" points="445.5 -106 346.5 -106 346.5 -71 445.5 -71 445.5 -106"/><text x="354.5" y="-86.4" fill="#006400" font-family="arial" font-size="12" text-anchor="start" text-decoration="underline">uni.LetterGrade</text></a></g></g><g id="edge11" class="edge"><title>uni.LetterGrade-&gt;uni.Grade</title><path fill="none" stroke="#000" stroke-dasharray="5 2" stroke-opacity=".251" stroke-width=".75" d="M383.3933,-70.9494C375.606,-60.1083 365.6418,-46.2366 357.816,-35.3418"/></g></g></svg>