<svg xmlns="http://www.w3.org/2000/svg" xmlns:xlink="http://www.w3.org/1999/xlink" width="338pt" height="436" viewBox="0 0 337.5 327"><g id="graph0" class="graph" transform="scale(1 1) rotate(0) translate(4 323)"><title>%3</title><polygon fill="#fff" stroke="transparent" points="-4 4 -4 -323 333.5 -323 333.5 4 -4 4"/><g id="node1" class="node"><title>Course</title><g id="a_node1"><a xlink:title="→ Departmentcourse ------------------------------course_name credits"><polygon fill="#0f0" fill-opacity=".188" stroke="#0f0" stroke-opacity=".188" points="233 -248 177 -248 177 -213 233 -213 233 -248"/><text x="185" y="-228.4" fill="#006400" font-family="arial" font-size="12" text-anchor="start" text-decoration="underline">Course</text></a></g></g><g id="node7" class="node"><title>Section</title><g id="a_node7"><a xlink:title="→ Course→ Termsection ------------------------------auditorium"><polygon fill="#0f0" fill-opacity=".188" stroke="#0f0" stroke-opacity=".188" points="228.5 -177 171.5 -177 171.5 -142 228.5 -142 228.5 -177"/><text x="179.5" y="-157.4" fill="#006400" font-family="arial" font-size="12" text-anchor="start" text-decoration="underline">Section</text></a></g></g><g id="edge1" class="edge"><title>Course-&gt;Section</title><path fill="none" stroke="#000" stroke-opacity=".251" stroke-width=".75" d="M203.764,-212.9494C203.0006,-202.1083 202.0237,-188.2366 201.2565,-177.3418"/></g><g id="node2" class="node"><title>Department</title><g id="a_node2"><a xlink:title="dept ------------------------------dept_name dept_address dept_phone"><polygon fill="#0f0" fill-opacity=".188" stroke="#0f0" stroke-opacity=".188" points="224.5 -319 145.5 -319 145.5 -284 224.5 -284 224.5 -319"/><text x="153.5" y="-299.4" fill="#006400" font-family="arial" font-size="12" text-anchor="start" text-decoration="underline">Department</text></a></g></g><g id="edge2" class="edge"><title>Department-&gt;Course</title><path fill="none" stroke="#000" stroke-opacity=".251" stroke-width=".75" d="M189.9438,-283.9494C192.9976,-273.1083 196.9052,-259.2366 199.9741,-248.3418"/></g><g id="node8" class="node"><title>StudentMajor</title><g id="a_node8"><a xlink:title="→ Student------------------------------→ Departmentdeclare_date"><polygon fill="#0f0" fill-opacity=".188" stroke="#0f0" stroke-opacity=".188" points="159 -248 71 -248 71 -213 159 -213 159 -248"/><text x="115" y="-227.4" fill="#006400" font-family="arial" font-size="12" text-anchor="middle">StudentMajor</text></a></g></g><g id="edge3" class="edge"><title>Department-&gt;StudentMajor</title><path fill="none" stroke="#000" stroke-dasharray="5 2" stroke-opacity=".251" stroke-width=".75" d="M167.6966,-283.9494C157.0082,-273.1083 143.3318,-259.2366 132.5905,-248.3418"/></g><g id="node3" class="node"><title>Term</title><g id="a_node3"><a xlink:title="term_year term"><polygon fill="#0f0" fill-opacity=".188" stroke="#0f0" stroke-opacity=".188" points="304.5 -248 261.5 -248 261.5 -213 304.5 -213 304.5 -248"/><text x="269.5" y="-228.4" fill="#006400" font-family="arial" font-size="12" text-anchor="start" text-decoration="underline">Term</text></a></g></g><g id="edge4" class="edge"><title>Term-&gt;Section</title><path fill="none" stroke="#000" stroke-opacity=".251" stroke-width=".75" d="M262.4831,-212.9494C249.7138,-202.0262 233.3476,-188.0262 220.5685,-177.0947"/></g><g id="node9" class="node"><title>CurrentTerm</title><g id="a_node9"><a xlink:title="omega ------------------------------→ Term"><polygon fill="#0f0" fill-opacity=".188" stroke="#0f0" stroke-opacity=".188" points="329.5 -177 246.5 -177 246.5 -142 329.5 -142 329.5 -177"/><text x="254.5" y="-157.4" fill="#006400" font-family="arial" font-size="12" text-anchor="start" text-decoration="underline">CurrentTerm</text></a></g></g><g id="edge5" class="edge"><title>Term-&gt;CurrentTerm</title><path fill="none" stroke="#000" stroke-dasharray="5 2" stroke-opacity=".251" stroke-width=".75" d="M284.236,-212.9494C284.9994,-202.1083 285.9763,-188.2366 286.7435,-177.3418"/></g><g id="node4" class="node"><title>LetterGrade</title><g id="a_node4"><a xlink:title="grade ------------------------------points"><polygon fill="#0f0" fill-opacity=".188" stroke="#0f0" stroke-opacity=".188" points="80 -106 0 -106 0 -71 80 -71 80 -106"/><text x="8" y="-86.4" fill="#006400" font-family="arial" font-size="12" text-anchor="start" text-decoration="underline">LetterGrade</text></a></g></g><g id="node10" class="node"><title>Grade</title><g id="a_node10"><a xlink:title="→ Enroll------------------------------→ LetterGrade"><polygon fill="#0f0" fill-opacity=".188" stroke="#0f0" stroke-opacity=".188" points="106 -35 56 -35 56 0 106 0 106 -35"/><text x="81" y="-14.4" fill="#006400" font-family="arial" font-size="12" text-anchor="middle">Grade</text></a></g></g><g id="edge6" class="edge"><title>LetterGrade-&gt;Grade</title><path fill="none" stroke="#000" stroke-dasharray="5 2" stroke-opacity=".251" stroke-width=".75" d="M50.1348,-70.9494C56.3952,-60.1083 64.4056,-46.2366 70.697,-35.3418"/></g><g id="node5" class="node"><title>Enroll</title><g id="a_node5"><a xlink:title="→ Student→ Section"><polygon fill="#0f0" fill-opacity=".188" stroke="#0f0" stroke-opacity=".188" points="146 -106 98 -106 98 -71 146 -71 146 -106"/><text x="122" y="-85.4" fill="#006400" font-family="arial" font-size="12" text-anchor="middle">Enroll</text></a></g></g><g id="edge7" class="edge"><title>Enroll-&gt;Grade</title><path fill="none" stroke="#000" stroke-opacity=".251" stroke-width="2" d="M111.8652,-70.9494C105.6048,-60.1083 97.5944,-46.2366 91.303,-35.3418"/></g><g id="node6" class="node"><title>Student</title><g id="a_node6"><a xlink:title="student_id ------------------------------first_name last_name sex date_of_birth home_address home_city home_state home_zip home_phone"><polygon fill="#0f0" fill-opacity=".188" stroke="#0f0" stroke-opacity=".188" points="108 -319 50 -319 50 -284 108 -284 108 -319"/><text x="58" y="-299.4" fill="#006400" font-family="arial" font-size="12" text-anchor="start" text-decoration="underline">Student</text></a></g></g><g id="edge8" class="edge"><title>Student-&gt;Enroll</title><path fill="none" stroke="#000" stroke-opacity=".251" stroke-width=".75" d="M71.2696,-283.7936C64.4603,-265.8736 56.4262,-237.4043 62,-213 71.2959,-172.299 95.6737,-129.4101 110.3369,-106.1102"/></g><g id="edge9" class="edge"><title>Student-&gt;StudentMajor</title><path fill="none" stroke="#000" stroke-opacity=".251" stroke-width="2" d="M87.8989,-283.9494C93.3958,-273.1083 100.4293,-259.2366 105.9534,-248.3418"/></g><g id="edge10" class="edge"><title>Section-&gt;Enroll</title><path fill="none" stroke="#000" stroke-opacity=".251" stroke-width=".75" d="M180.7191,-141.9494C168.7189,-131.0262 153.3387,-117.0262 141.3294,-106.0947"/></g></g></svg>