<svg xmlns="http://www.w3.org/2000/svg" xmlns:xlink="http://www.w3.org/1999/xlink" width="412pt" height="436" viewBox="0 0 411.5 327"><g id="graph0" class="graph" transform="scale(1 1) rotate(0) translate(4 323)"><title>%3</title><polygon fill="#fff" stroke="transparent" points="-4 4 -4 -323 407.5 -323 407.5 4 -4 4"/><g id="node1" class="node"><title>uni.LetterGrade</title><g id="a_node1"><a xlink:title="grade ------------------------------points"><polygon fill="#0f0" fill-opacity=".188" stroke="#0f0" stroke-opacity=".188" points="99 -106 0 -106 0 -71 99 -71 99 -106"/><text x="8" y="-86.4" fill="#006400" font-family="arial" font-size="12" text-anchor="start" text-decoration="underline">uni.LetterGrade</text></a></g></g><g id="node3" class="node"><title>uni.Grade</title><g id="a_node3"><a xlink:title="→ uni.Enroll------------------------------→ uni.LetterGrade"><polygon fill="#0f0" fill-opacity=".188" stroke="#0f0" stroke-opacity=".188" points="135 -35 66 -35 66 0 135 0 135 -35"/><text x="100.5" y="-14.4" fill="#006400" font-family="arial" font-size="12" text-anchor="middle">uni.Grade</text></a></g></g><g id="edge1" class="edge"><title>uni.LetterGrade-&gt;uni.Grade</title><path fill="none" stroke="#000" stroke-dasharray="5 2" stroke-opacity=".251" stroke-width=".75" d="M62.1067,-70.9494C69.894,-60.1083 79.8582,-46.2366 87.684,-35.3418"/></g><g id="node2" class="node"><title>uni.Course</title><g id="a_node2"><a xlink:title="→ uni.Departmentcourse ------------------------------course_name credits"><polygon fill="#0f0" fill-opacity=".188" stroke="#0f0" stroke-opacity=".188" points="288 -248 213 -248 213 -213 288 -213 288 -248"/><text x="221" y="-228.4" fill="#006400" font-family="arial" font-size="12" text-anchor="start" text-decoration="underline">uni.Course</text></a></g></g><g id="node5" class="node"><title>uni.Section</title><g id="a_node5"><a xlink:title="→ uni.Course→ uni.Termsection ------------------------------auditorium"><polygon fill="#0f0" fill-opacity=".188" stroke="#0f0" stroke-opacity=".188" points="283 -177 206 -177 206 -142 283 -142 283 -177"/><text x="214" y="-157.4" fill="#006400" font-family="arial" font-size="12" text-anchor="start" text-decoration="underline">uni.Section</text></a></g></g><g id="edge2" class="edge"><title>uni.Course-&gt;uni.Section</title><path fill="none" stroke="#000" stroke-opacity=".251" stroke-width=".75" d="M249.0169,-212.9494C248.1007,-202.1083 246.9284,-188.2366 246.0078,-177.3418"/></g><g id="node4" class="node"><title>uni.Term</title><g id="a_node4"><a xlink:title="term_year term"><polygon fill="#0f0" fill-opacity=".188" stroke="#0f0" stroke-opacity=".188" points="378.5 -248 316.5 -248 316.5 -213 378.5 -213 378.5 -248"/><text x="324.5" y="-228.4" fill="#006400" font-family="arial" font-size="12" text-anchor="start" text-decoration="underline">uni.Term</text></a></g></g><g id="edge3" class="edge"><title>uni.Term-&gt;uni.Section</title><path fill="none" stroke="#000" stroke-opacity=".251" stroke-width=".75" d="M322.0393,-212.9494C306.193,-202.0262 285.8831,-188.0262 270.0248,-177.0947"/></g><g id="node7" class="node"><title>uni.CurrentTerm</title><g id="a_node7"><a xlink:title="omega ------------------------------→ uni.Term"><polygon fill="#0f0" fill-opacity=".188" stroke="#0f0" stroke-opacity=".188" points="403.5 -177 301.5 -177 301.5 -142 403.5 -142 403.5 -177"/><text x="309.5" y="-157.4" fill="#006400" font-family="arial" font-size="12" text-anchor="start" text-decoration="underline">uni.CurrentTerm</text></a></g></g><g id="edge4" class="edge"><title>uni.Term-&gt;uni.CurrentTerm</title><path fill="none" stroke="#000" stroke-dasharray="5 2" stroke-opacity=".251" stroke-width=".75" d="M348.736,-212.9494C349.4994,-202.1083 350.4763,-188.2366 351.2435,-177.3418"/></g><g id="node8" class="node"><title>uni.Enroll</title><g id="a_node8"><a xlink:title="→ uni.Student→ uni.Section"><polygon fill="#0f0" fill-opacity=".188" stroke="#0f0" stroke-opacity=".188" points="185.5 -106 117.5 -106 117.5 -71 185.5 -71 185.5 -106"/><text x="151.5" y="-85.4" fill="#006400" font-family="arial" font-size="12" text-anchor="middle">uni.Enroll</text></a></g></g><g id="edge5" class="edge"><title>uni.Section-&gt;uni.Enroll</title><path fill="none" stroke="#000" stroke-opacity=".251" stroke-width=".75" d="M221.5112,-141.9494C207.2034,-131.0262 188.8653,-117.0262 174.5466,-106.0947"/></g><g id="node6" class="node"><title>uni.StudentMajor</title><g id="a_node6"><a xlink:title="→ uni.Student------------------------------→ uni.Departmentdeclare_date"><polygon fill="#0f0" fill-opacity=".188" stroke="#0f0" stroke-opacity=".188" points="195 -248 88 -248 88 -213 195 -213 195 -248"/><text x="141.5" y="-227.4" fill="#006400" font-family="arial" font-size="12" text-anchor="middle">uni.StudentMajor</text></a></g></g><g id="edge6" class="edge"><title>uni.Enroll-&gt;uni.Grade</title><path fill="none" stroke="#000" stroke-opacity=".251" stroke-width="2" d="M138.8933,-70.9494C131.106,-60.1083 121.1418,-46.2366 113.316,-35.3418"/></g><g id="node9" class="node"><title>uni.Department</title><g id="a_node9"><a xlink:title="dept ------------------------------dept_name dept_address dept_phone"><polygon fill="#0f0" fill-opacity=".188" stroke="#0f0" stroke-opacity=".188" points="277.5 -319 179.5 -319 179.5 -284 277.5 -284 277.5 -319"/><text x="187.5" y="-299.4" fill="#006400" font-family="arial" font-size="12" text-anchor="start" text-decoration="underline">uni.Department</text></a></g></g><g id="edge7" class="edge"><title>uni.Department-&gt;uni.Course</title><path fill="none" stroke="#000" stroke-opacity=".251" stroke-width=".75" d="M233.9382,-283.9494C237.2974,-273.1083 241.5957,-259.2366 244.9715,-248.3418"/></g><g id="edge8" class="edge"><title>uni.Department-&gt;uni.StudentMajor</title><path fill="none" stroke="#000" stroke-dasharray="5 2" stroke-opacity=".251" stroke-width=".75" d="M206.9944,-283.9494C193.6096,-273.0262 176.4547,-259.0262 163.0597,-248.0947"/></g><g id="node10" class="node"><title>uni.Student</title><g id="a_node10"><a xlink:title="student_id ------------------------------first_name last_name sex date_of_birth home_address home_city home_state home_zip home_phone"><polygon fill="#0f0" fill-opacity=".188" stroke="#0f0" stroke-opacity=".188" points="139 -319 62 -319 62 -284 139 -284 139 -319"/><text x="70" y="-299.4" fill="#006400" font-family="arial" font-size="12" text-anchor="start" text-decoration="underline">uni.Student</text></a></g></g><g id="edge9" class="edge"><title>uni.Student-&gt;uni.StudentMajor</title><path fill="none" stroke="#000" stroke-opacity=".251" stroke-width="2" d="M110.6348,-283.9494C116.8952,-273.1083 124.9056,-259.2366 131.197,-248.3418"/></g><g id="edge10" class="edge"><title>uni.Student-&gt;uni.Enroll</title><path fill="none" stroke="#000" stroke-opacity=".251" stroke-width=".75" d="M90.7385,-283.8113C82.1149,-265.905 71.8615,-237.4462 78.5,-213 89.8597,-171.1678 119.2037,-129.0177 137.0374,-106.0834"/></g></g></svg>